grf
version=1
nRows=19
nColumns=37
inDegrees=no
endheader
time	ground_force_1_vx	ground_force_1_vy	ground_force_1_vz	ground_force_1_px	ground_force_1_py	ground_force_1_pz	ground_moment_1_mx	ground_moment_1_my	ground_moment_1_mz	ground_force_2_vx	ground_force_2_vy	ground_force_2_vz	ground_force_2_px	ground_force_2_py	ground_force_2_pz	ground_moment_2_mx	ground_moment_2_my	ground_moment_2_mz	ground_force_3_vx	ground_force_3_vy	ground_force_3_vz	ground_force_3_px	ground_force_3_py	ground_force_3_pz	ground_moment_3_mx	ground_moment_3_my	ground_moment_3_mz	ground_force_4_vx	ground_force_4_vy	ground_force_4_vz	ground_force_4_px	ground_force_4_py	ground_force_4_pz	ground_moment_4_mx	ground_moment_4_my	ground_moment_4_mz
      1.71000000	      0.00000000	     -0.00000000	      0.00000000	      0.00000000	      0.00000000	      0.00000000	      0.00000000	      0.00000000	      0.00000000	    -10.31175709	      3.60062385	   -728.68035889	   -265.48839099	  -1065.78389329	      0.00000000	      0.00000000	      0.00000000	   1981.36791692	      0.00000000	     -0.00000000	      0.00000000	      0.00000000	      0.00000000	      0.00000000	      0.00000000	      0.00000000	      0.00000000	    -34.70988319	     16.59219092	     74.89144897	    609.41086435	   -567.56811813	      0.00000000	      0.00000000	     -0.00000000	   -181.23147122
      1.72000000	      0.00000000	     -0.00000000	      0.00000000	      0.00000000	      0.00000000	      0.00000000	      0.00000000	      0.00000000	      0.00000000	    -13.36294365	      3.36932659	   -728.81982422	   -263.70486854	  -1064.96951541	      0.00000000	      0.00000000	     -0.00000000	   1664.12218292	      0.00000000	     -0.00000000	      0.00000000	      0.00000000	      0.00000000	      0.00000000	      0.00000000	      0.00000000	      0.00000000	    -35.15866329	     16.19453738	     76.01273346	    603.24036871	   -563.26968672	      0.00000000	     -0.00000000	     -0.00000000	   -213.94938334
      1.73000000	      0.00000000	     -0.00000000	      0.00000000	      0.00000000	      0.00000000	      0.00000000	      0.00000000	      0.00000000	      0.00000000	    -16.43231964	      3.86902547	   -732.77374268	   -262.19787011	  -1066.12184155	      0.00000000	      0.00000000	      0.00000000	   1788.44525932	      0.00000000	     -0.00000000	      0.00000000	      0.00000000	      0.00000000	      0.00000000	      0.00000000	      0.00000000	      0.00000000	    -34.99757246	     15.92462846	     75.87445831	    604.11904266	   -564.69252793	      0.00000000	      0.00000000	     -0.00000000	    -20.86904403
      1.74000000	      0.00000000	     -0.00000000	      0.00000000	      0.00000000	      0.00000000	      0.00000000	      0.00000000	      0.00000000	      0.00000000	    -18.82186508	      3.68937826	   -734.26110840	   -261.26096019	  -1065.18618479	      0.00000000	      0.00000000	     -0.00000000	   1754.96350716	      0.00000000	     -0.00000000	      0.00000000	      0.00000000	      0.00000000	      0.00000000	      0.00000000	      0.00000000	      0.00000000	    -34.83430719	     16.39412231	     75.52329254	    605.09260616	   -561.67224327	      0.00000000	      0.00000000	      0.00000000	   -317.93956236
      1.75000000	      0.00000000	     -0.00000000	      0.00000000	      0.00000000	      0.00000000	      0.00000000	      0.00000000	      0.00000000	      0.00000000	    -19.59332848	      2.97811174	   -737.63940430	   -260.85600345	  -1065.16498272	      0.00000000	      0.00000000	      0.00000000	   1659.23690501	      0.00000000	     -0.00000000	      0.00000000	      0.00000000	      0.00000000	      0.00000000	      0.00000000	      0.00000000	      0.00000000	    -34.88880017	     16.10456772	     75.74691772	    605.95829631	   -563.80871299	      0.00000000	      0.00000000	     -0.00000000	    -88.82813432
      1.76000000	      0.00000000	     -0.00000000	      0.00000000	      0.00000000	      0.00000000	      0.00000000	      0.00000000	      0.00000000	      0.00000000	    -19.41310692	      1.08918738	   -743.99456787	   -261.41998409	  -1065.55827378	      0.00000000	      0.00000000	      0.00000000	   1451.12492635	      0.00000000	     -0.00000000	      0.00000000	      0.00000000	      0.00000000	      0.00000000	      0.00000000	      0.00000000	      0.00000000	    -34.56564951	     16.32215421	     76.57559967	    599.73680620	   -563.20671503	      0.00000000	      0.00000000	     -0.00000000	    -32.41894758
      1.77000000	      0.00000000	     -0.00000000	      0.00000000	      0.00000000	      0.00000000	      0.00000000	      0.00000000	      0.00000000	      0.00000000	    -18.86064339	     -1.04712081	   -755.01989746	   -262.55647883	  -1066.58406842	      0.00000000	      0.00000000	      0.00000000	   1608.28857561	      0.00000000	     -0.00000000	      0.00000000	      0.00000000	      0.00000000	      0.00000000	      0.00000000	      0.00000000	      0.00000000	    -34.98132944	     16.39494248	     74.88836670	    606.18125040	   -562.05815973	      0.00000000	     -0.00000000	     -0.00000000	   -300.66148989
      1.78000000	      0.00000000	     -0.00000000	      0.00000000	      0.00000000	      0.00000000	      0.00000000	      0.00000000	      0.00000000	      0.00000000	    -19.78453636	     -2.36910343	   -757.98077393	   -262.86124674	  -1066.51651039	      0.00000000	      0.00000000	      0.00000000	   1392.96170093	      0.00000000	     -0.00000000	      0.00000000	      0.00000000	      0.00000000	      0.00000000	      0.00000000	      0.00000000	      0.00000000	    -34.83719493	     16.19106788	     75.26579285	    605.78354727	   -560.97971964	      0.00000000	      0.00000000	     -0.00000000	   -250.42886925
      1.79000000	      0.00000000	     -0.00000000	      0.00000000	      0.00000000	      0.00000000	      0.00000000	      0.00000000	      0.00000000	      0.00000000	    -19.96922493	     -3.05086589	   -764.71557617	   -263.65701479	  -1068.61433207	      0.00000000	      0.00000000	     -0.00000000	   1370.89029865	      0.00000000	     -0.00000000	      0.00000000	      0.00000000	      0.00000000	      0.00000000	      0.00000000	      0.00000000	      0.00000000	    -34.45487835	     16.16006389	     76.65681458	    597.16090384	   -564.60671560	      0.00000000	      0.00000000	      0.00000000	     33.49847461
      1.80000000	      0.00000000	     -0.00000000	      0.00000000	      0.00000000	      0.00000000	      0.00000000	      0.00000000	      0.00000000	      0.00000000	    -19.69840813	     -2.45781851	   -766.23614502	   -264.85588728	  -1069.15595603	      0.00000000	      0.00000000	      0.00000000	   1088.80694989	      0.00000000	     -0.00000000	      0.00000000	      0.00000000	      0.00000000	      0.00000000	      0.00000000	      0.00000000	      0.00000000	    -35.05065398	     15.89030763	     75.53791046	    604.70876999	   -566.29702168	      0.00000000	      0.00000000	      0.00000000	     71.99947897
      1.81000000	      0.00000000	     -0.00000000	      0.00000000	      0.00000000	      0.00000000	      0.00000000	      0.00000000	      0.00000000	      0.00000000	    -18.64499664	     -1.02240527	   -765.13842773	   -265.50176691	  -1070.37459489	      0.00000000	      0.00000000	      0.00000000	    779.07979830	      0.00000000	     -0.00000000	      0.00000000	      0.00000000	      0.00000000	      0.00000000	      0.00000000	      0.00000000	      0.00000000	    -34.60342645	     16.46444623	     75.30383301	    605.30936805	   -565.92939442	      0.00000000	      0.00000000	     -0.00000000	   -203.75293096
      1.82000000	      0.00000000	     -0.00000000	      0.00000000	      0.00000000	      0.00000000	      0.00000000	      0.00000000	      0.00000000	      0.00000000	    -16.81830215	      4.63053465	   -762.31365967	   -265.43164181	  -1070.59489652	      0.00000000	      0.00000000	      0.00000000	    764.50984173	      0.00000000	     -0.00000000	      0.00000000	      0.00000000	      0.00000000	      0.00000000	      0.00000000	      0.00000000	      0.00000000	    -34.63736583	     16.26268308	     76.45978546	    604.71488706	   -562.85203818	      0.00000000	      0.00000000	     -0.00000000	   -128.30165406
      1.83000000	      0.00000000	     -0.00000000	      0.00000000	      0.00000000	      0.00000000	      0.00000000	      0.00000000	      0.00000000	      0.00000000	    -17.91439629	      8.55651855	   -759.75701904	   -265.53573815	  -1071.67831681	      0.00000000	      0.00000000	      0.00000000	    661.37550587	      0.00000000	     -0.00000000	      0.00000000	      0.00000000	      0.00000000	      0.00000000	      0.00000000	      0.00000000	      0.00000000	    -34.61529019	     16.08244054	     76.37525177	    602.71686357	   -563.88597937	      0.00000000	      0.00000000	     -0.00000000	    -76.98983452
      1.84000000	      0.00000000	     -0.00000000	      0.00000000	      0.00000000	      0.00000000	      0.00000000	      0.00000000	      0.00000000	      0.00000000	    -18.87892342	     11.90485573	   -756.77832031	   -265.61480422	  -1070.83861481	      0.00000000	      0.00000000	     -0.00000000	    363.45504183	      0.00000000	     -0.00000000	      0.00000000	      0.00000000	      0.00000000	      0.00000000	      0.00000000	      0.00000000	      0.00000000	    -34.85520029	     16.37996597	     76.68221283	    599.35382124	   -562.94009125	      0.00000000	      0.00000000	     -0.00000000	    -55.27003841
      1.85000000	      0.00000000	     -0.00000000	      0.00000000	      0.00000000	      0.00000000	      0.00000000	      0.00000000	      0.00000000	      0.00000000	    -17.68572998	     12.49503136	   -761.10278320	   -266.31351057	  -1071.80195876	      0.00000000	      0.00000000	      0.00000000	    520.73628133	      0.00000000	     -0.00000000	      0.00000000	      0.00000000	      0.00000000	      0.00000000	      0.00000000	      0.00000000	      0.00000000	    -34.63139200	     16.39711301	     74.75280762	    608.16494570	   -569.12163663	      0.00000000	      0.00000000	     -0.00000000	    -93.02638704
      1.86000000	      0.00000000	     -0.00000000	      0.00000000	      0.00000000	      0.00000000	      0.00000000	      0.00000000	      0.00000000	      0.00000000	    -15.29406261	     10.64554882	   -761.49981689	   -267.46079887	  -1069.73770322	      0.00000000	      0.00000000	      0.00000000	    759.59637472	      0.00000000	     -0.00000000	      0.00000000	      0.00000000	      0.00000000	      0.00000000	      0.00000000	      0.00000000	      0.00000000	    -34.81600810	     16.23423499	     77.01337433	    601.26831021	   -564.47325608	      0.00000000	      0.00000000	     -0.00000000	     -7.73376123
      1.87000000	      0.00000000	     -0.00000000	      0.00000000	      0.00000000	      0.00000000	      0.00000000	      0.00000000	      0.00000000	      0.00000000	    -11.77578735	      7.67706060	   -766.02380371	   -269.61283082	  -1068.44960525	      0.00000000	      0.00000000	      0.00000000	    752.66269070	      0.00000000	     -0.00000000	      0.00000000	      0.00000000	      0.00000000	      0.00000000	      0.00000000	      0.00000000	      0.00000000	    -34.96165706	     16.21123620	     75.55971527	    603.97187457	   -563.87500962	      0.00000000	      0.00000000	     -0.00000000	    -84.29699647
      1.88000000	      0.00000000	     -0.00000000	      0.00000000	      0.00000000	      0.00000000	      0.00000000	      0.00000000	      0.00000000	      0.00000000	     -9.97499561	      4.01716757	   -768.11639404	   -270.21216880	  -1066.97431985	      0.00000000	      0.00000000	      0.00000000	    711.54492595	      0.00000000	     -0.00000000	      0.00000000	      0.00000000	      0.00000000	      0.00000000	      0.00000000	      0.00000000	      0.00000000	    -34.65348293	     16.16129224	     76.00018311	    603.66487466	   -566.87230313	      0.00000000	      0.00000000	     -0.00000000	    -83.73761672
      1.89000000	      0.00000000	     -0.00000000	      0.00000000	      0.00000000	      0.00000000	      0.00000000	      0.00000000	      0.00000000	      0.00000000	     -8.93757343	      1.73308504	   -769.38287354	   -270.96871454	  -1066.87874026	      0.00000000	      0.00000000	      0.00000000	    829.85732559	      0.00000000	     -0.00000000	      0.00000000	      0.00000000	      0.00000000	      0.00000000	      0.00000000	      0.00000000	      0.00000000	    -34.79934550	     16.32478637	     76.15661621	    601.87628111	   -562.23076448	      0.00000000	     -0.00000000	     -0.00000000	   -135.27503794
